<svg width="25" height="24" viewBox="0 0 25 24" fill="none" xmlns="http://www.w3.org/2000/svg">
          <path
            d="M5.5 17H4.5C3.96957 17 3.46086 16.7893 3.08579 16.4142C2.71071 16.0391 2.5 15.5304 2.5 15V5C2.5 4.46957 2.71071 3.96086 3.08579 3.58579C3.46086 3.21071 3.96957 3 4.5 3H20.5C21.0304 3 21.5391 3.21071 21.9142 3.58579C22.2893 3.96086 22.5 4.46957 22.5 5V15C22.5 15.5304 22.2893 16.0391 21.9142 16.4142C21.5391 16.7893 21.0304 17 20.5 17H19.5M12.5 15L17.5 21H7.5L12.5 15Z"
            stroke="stroke-current"
            stroke-width="2"
            stroke-linecap="round"
            stroke-linejoin="round"
          />
        </svg>