<svg width="16" height="16" viewBox="0 0 16 16" fill="none" xmlns="http://www.w3.org/2000/svg">
<g id="Bell">
<path id="Icon" d="M9.15333 14.0007C9.03613 14.2027 8.86789 14.3704 8.66548 14.487C8.46307 14.6036 8.23359 14.665 8 14.665C7.76641 14.665 7.53693 14.6036 7.33452 14.487C7.1321 14.3704 6.96387 14.2027 6.84667 14.0007M12 5.33398C12 4.27312 11.5786 3.2557 10.8284 2.50556C10.0783 1.75541 9.06087 1.33398 8 1.33398C6.93913 1.33398 5.92172 1.75541 5.17157 2.50556C4.42143 3.2557 4 4.27312 4 5.33398C4 10.0007 2 11.334 2 11.334H14C14 11.334 12 10.0007 12 5.33398Z" stroke="#7173FA" stroke-width="1.6" stroke-linecap="round" stroke-linejoin="round"/>
</g>
</svg>
