<svg width="20" height="21" viewBox="0 0 20 21" fill="none" xmlns="http://www.w3.org/2000/svg">
<g id="Briefcase">
<path id="Icon" d="M13.3333 18V4.66667C13.3333 4.22464 13.1577 3.80072 12.8451 3.48816C12.5326 3.17559 12.1087 3 11.6666 3H8.33329C7.89127 3 7.46734 3.17559 7.15478 3.48816C6.84222 3.80072 6.66663 4.22464 6.66663 4.66667V18M3.33329 6.33333H16.6666C17.5871 6.33333 18.3333 7.07953 18.3333 8V16.3333C18.3333 17.2538 17.5871 18 16.6666 18H3.33329C2.41282 18 1.66663 17.2538 1.66663 16.3333V8C1.66663 7.07953 2.41282 6.33333 3.33329 6.33333Z" stroke="#2F323C" stroke-width="2" stroke-linecap="round" stroke-linejoin="round"/>
</g>
</svg>
