<svg width="20" height="21" viewBox="0 0 20 21" fill="none" xmlns="http://www.w3.org/2000/svg">
<g id="Copy">
<path id="Icon" d="M4.1665 12.9993H3.33317C2.89114 12.9993 2.46722 12.8238 2.15466 12.5112C1.8421 12.1986 1.6665 11.7747 1.6665 11.3327V3.83268C1.6665 3.39065 1.8421 2.96673 2.15466 2.65417C2.46722 2.34161 2.89114 2.16602 3.33317 2.16602H10.8332C11.2752 2.16602 11.6991 2.34161 12.0117 2.65417C12.3242 2.96673 12.4998 3.39065 12.4998 3.83268V4.66602M9.1665 7.99935H16.6665C17.587 7.99935 18.3332 8.74554 18.3332 9.66602V17.166C18.3332 18.0865 17.587 18.8327 16.6665 18.8327H9.1665C8.24603 18.8327 7.49984 18.0865 7.49984 17.166V9.66602C7.49984 8.74554 8.24603 7.99935 9.1665 7.99935Z" stroke="#2F323C" stroke-width="1.6" stroke-linecap="round" stroke-linejoin="round"/>
</g>
</svg>
