<svg width="117" height="122" viewBox="0 0 117 122" fill="none" xmlns="http://www.w3.org/2000/svg">
<path d="M27.9264 29.5195L8.88357 45.6148C7.64314 46.6631 6.92578 48.2233 6.92578 49.8724V109.736C6.92578 112.783 9.3349 115.253 12.306 115.253H104.689C107.66 115.253 110.07 112.783 110.07 109.736V49.8724C110.07 48.2233 109.352 46.6631 108.112 45.6148L88.2321 28.8145" stroke="#7173FA" stroke-width="5.6" stroke-miterlimit="10"/>
<path d="M78.7359 20.9563L64.599 8.82894C61.0558 5.79009 55.9388 5.79009 52.3986 8.82894L38.2617 20.9563" stroke="#7173FA" stroke-width="5.6" stroke-miterlimit="10"/>
<path d="M8.23047 112.543L40.7029 82.8715C43.6302 80.1159 47.4946 78.5811 51.5111 78.5811H64.2888C68.2039 78.5811 71.9787 80.0381 74.8822 82.6741L108.763 112.633" stroke="#7173FA" stroke-width="5.6" stroke-miterlimit="10"/>
<path d="M110.072 47.1494L74.8203 82.5107" stroke="#7173FA" stroke-width="5.6" stroke-miterlimit="10"/>
<path d="M6.92578 47.1494L39.5662 82.5107" stroke="#7173FA" stroke-width="5.6" stroke-miterlimit="10"/>
<path d="M27.8164 70.7238V22.4909C27.8164 21.6436 28.4879 20.9561 29.3153 20.9561H86.3759C87.2033 20.9561 87.8748 21.6436 87.8748 22.4909V69.9011" stroke="#7173FA" stroke-width="5.6" stroke-miterlimit="10"/>
<path d="M75.2542 39.9463L54.9083 60.3554L45.6602 51.0785" stroke="#7173FA" stroke-width="5.6" stroke-linecap="round" stroke-linejoin="round"/>
</svg>
