<svg width="16" height="16" viewBox="0 0 16 16" fill="none" xmlns="http://www.w3.org/2000/svg">
<g id="Size=16" clip-path="url(#clip0_2637_3253)">
<path id="Icon" d="M11.9603 11.9601C10.8207 12.8287 9.43306 13.31 8.00033 13.3334C3.33366 13.3334 0.666992 8.00008 0.666992 8.00008C1.49625 6.45468 2.64642 5.10449 4.04033 4.04008M6.60032 2.82675C7.05921 2.71933 7.52903 2.66564 8.00033 2.66675C12.667 2.66675 15.3337 8.00008 15.3337 8.00008C14.929 8.75715 14.4464 9.4699 13.8937 10.1267M9.41366 9.41341C9.23056 9.60991 9.00976 9.76752 8.76443 9.87683C8.51909 9.98614 8.25426 10.0449 7.98572 10.0497C7.71718 10.0544 7.45043 10.005 7.2014 9.90441C6.95236 9.80382 6.72614 9.6541 6.53622 9.46418C6.34631 9.27427 6.19659 9.04804 6.096 8.79901C5.99541 8.54997 5.94601 8.28323 5.95075 8.01469C5.95549 7.74615 6.01426 7.48131 6.12358 7.23598C6.23289 6.99065 6.39049 6.76985 6.58699 6.58675M0.666992 0.666748L15.3337 15.3334" stroke="#2F323C" stroke-width="1.6" stroke-linecap="round" stroke-linejoin="round"/>
</g>
<defs>
<clipPath id="clip0_2637_3253">
<rect width="16" height="16" fill="white"/>
</clipPath>
</defs>
</svg>
