<svg width="87" height="73" viewBox="0 0 87 73" fill="none" xmlns="http://www.w3.org/2000/svg">
<path d="M10.5 8.5V17H70V3C70 2.44772 69.5523 2 69 2H51C50.4477 2 50 2.44772 50 3V7.5H11.5C10.9477 7.5 10.5 7.94772 10.5 8.5Z" fill="#E0E0E0"/>
<path d="M10.5 17H8.5V19H10.5V17ZM50 7.5V9.5C51.1046 9.5 52 8.60457 52 7.5H50ZM70 17V19H72V17H70ZM12.5 17V8.5H8.5V17H12.5ZM11.5 9.5H50V5.5H11.5V9.5ZM52 7.5V3H48V7.5H52ZM51 4H69V0H51V4ZM68 3V17H72V3H68ZM70 15H10.5V19H70V15ZM69 4C68.4477 4 68 3.55229 68 3H72C72 1.34315 70.6569 0 69 0V4ZM52 3C52 3.55229 51.5523 4 51 4V0C49.3431 0 48 1.34315 48 3H52ZM12.5 8.5C12.5 9.05228 12.0523 9.5 11.5 9.5V5.5C9.84315 5.5 8.5 6.84315 8.5 8.5H12.5Z" fill="#2F323C"/>
<path d="M70 17H3.5C2.94772 17 2.5 17.4477 2.5 18V44C2.5 50.6274 7.87258 56 14.5 56H70V17Z" fill="#F7F7F7" stroke="#2F323C" stroke-width="4"/>
<circle cx="60.5" cy="43.084" r="19" fill="#EBECFE"/>
<path d="M54.68 37.7083C55.1502 36.3995 56.0783 35.2959 57.2999 34.5929C58.5215 33.8899 59.9578 33.6329 61.3544 33.8675C62.7509 34.102 64.0176 34.813 64.9302 35.8744C65.8427 36.9358 66.3421 38.2792 66.34 39.6667C66.34 43.5833 60.34 45.5417 60.34 45.5417M60.5 53.375H60.52M80.5 43.5833C80.5 54.3989 71.5457 63.1667 60.5 63.1667C49.4543 63.1667 40.5 54.3989 40.5 43.5833C40.5 32.7678 49.4543 24 60.5 24C71.5457 24 80.5 32.7678 80.5 43.5833Z" stroke="#2F323C" stroke-width="4" stroke-linecap="round" stroke-linejoin="round"/>
<path d="M73.5 59.084L84.5 70.084" stroke="#2F323C" stroke-width="4" stroke-linecap="round"/>
</svg>
