<svg width="90" height="93" viewBox="0 0 90 93" fill="none" xmlns="http://www.w3.org/2000/svg">
<g id="Frame" clip-path="url(#clip0_2850_5536)">
<g id="Character_Hand_1">
<g id="Group">
<g id="Group_2">
<path id="Vector" d="M11.3286 9.17026C17.6953 6.01436 25.2799 32.1463 25.7108 31.9438C25.7108 31.9438 18.8363 2.91348 22.345 2.33248C29.2723 1.18588 36.193 31.5278 36.193 31.5278C36.193 31.5278 31.8291 4.1305 35.1839 4.15911C42.729 4.22294 45.9409 31.9614 45.9409 31.9614C45.9409 31.9614 44.2745 11.8288 47.1677 11.9432C55.0469 12.2535 56.1395 47.6881 56.8496 52.8115C58.538 64.9641 51.1446 71.9956 51.1446 71.9956L41.799 92.8984H5.14435L20.9622 71.4454C18.1482 67.8097 18.2251 54.6887 16.8291 43.2161C16.1849 37.9167 9.06198 10.2949 11.3308 9.17026H11.3286Z" fill="#F5DACD"/>
<g id="Group_3">
<path id="Vector_2" d="M20.96 71.4455C12.7092 65.0457 14.1206 53.0911 11.9749 48.0888C10.1964 43.9469 5.23888 33.2204 6.73163 32.4942C13.7139 29.0962 20.9028 43.1701 20.9028 43.1701C20.9028 43.1701 30.787 46.9752 33.3988 54.2575C36.0105 61.5377 20.96 71.4455 20.96 71.4455Z" fill="#F5DACD"/>
<path id="Vector_3" d="M34.5595 60.0901C33.4559 52.7814 28.6149 47.2068 22.079 44.0443C21.6041 43.811 21.1204 43.5953 20.6368 43.4171C20.3906 42.561 19.9926 41.7071 19.5683 40.9104C18.324 38.6018 16.6158 36.5661 14.7164 34.7637C15.0571 35.0432 15.4045 35.3139 15.7386 35.6C17.4095 37.0547 18.8912 38.7383 20.0366 40.6397C20.4983 41.41 20.9094 42.1891 21.215 43.076L21.0039 42.8559C22.8704 43.4765 24.5852 44.3854 26.2033 45.4858C31.064 48.7275 34.5134 54.1612 34.5574 60.0879L34.5595 60.0901Z" fill="#464A59"/>
</g>
<g id="Group_4">
<path id="Vector_4" d="M25.7086 31.9434C26.7397 34.0429 27.3553 36.3339 27.5091 38.6689C26.4759 36.576 25.8625 34.274 25.7086 31.9434Z" fill="#464A59"/>
<path id="Vector_5" d="M35.7819 29.5391C36.2876 30.5668 36.5975 31.654 36.8504 32.7632C37.0856 33.8746 37.2659 34.9948 37.2131 36.1414C36.3491 34.044 35.8391 31.8081 35.7797 29.5391H35.7819Z" fill="#263238"/>
<path id="Vector_6" d="M45.4617 28.5352C46.3498 30.6193 46.7939 32.9367 46.6818 35.2035C45.8904 33.0709 45.4639 30.8129 45.4617 28.5352Z" fill="#263238"/>
<path id="Vector_7" d="M25.1194 39.3643C32.4645 36.2722 40.5525 34.3312 48.5483 35.2005C40.5459 35.2533 32.7612 37.1371 25.1194 39.3643Z" fill="#464A59"/>
</g>
</g>
<g id="Group_5">
<path id="Vector_8" d="M3.68237 92.8983L14.158 77.0176L54.5171 83.1401L49.0583 92.8983H3.68237Z" fill="#7173FA"/>
<path id="Vector_9" d="M29.7383 88.5569C32.5721 88.8606 43.9227 89.9962 46.7609 90.0623C46.8071 90.0623 46.8225 89.9896 46.7763 89.9808C44.0788 89.3866 32.9129 87.9363 30.0725 87.6282C24.4115 87.0098 18.7307 86.2725 13.028 86.2813C12.9268 86.2813 12.8873 86.4442 12.9972 86.464C18.5219 87.5358 24.1499 87.9605 29.7383 88.5591V88.5569Z" fill="#4E54CC"/>
</g>
</g>
</g>
<g id="Character_Hand_2">
<g id="Group_6">
<g id="Group_7">
<g id="Group_8">
<path id="Vector_10" d="M67.4793 69.1124C75.2948 62.1866 73.1073 50.3508 74.9233 45.2187C76.427 40.969 80.6744 29.9431 79.1377 29.3159C71.9488 26.3801 65.6942 40.8942 65.6942 40.8942C65.6942 40.8942 56.0804 45.3375 53.9479 52.7739C51.8154 60.2103 67.4793 69.1124 67.4793 69.1124Z" fill="#263238"/>
<path id="Vector_11" d="M67.4793 69.1124C75.2948 62.1866 73.1073 50.3508 74.9233 45.2187C76.427 40.969 80.6744 29.9431 79.1377 29.3159C71.9488 26.3801 65.6942 40.8942 65.6942 40.8942C65.6942 40.8942 56.0804 45.3375 53.9479 52.7739C51.8154 60.2103 67.4793 69.1124 67.4793 69.1124Z" fill="#464A59"/>
<path id="Vector_12" opacity="0.1" d="M72.5709 30.916L64.5444 67.2551C60.1211 64.2554 52.4112 58.1329 53.9479 52.7718C56.0782 45.3354 65.692 40.8921 65.692 40.8921C65.692 40.8921 68.5258 34.3184 72.5709 30.916Z" fill="#464A59"/>
</g>
<g id="Group_9">
<g id="Group_10">
<path id="Vector_13" d="M57.571 29.5371C58.1338 31.8039 58.2547 34.1807 57.9095 36.4915C57.3423 34.2203 57.2302 31.8523 57.571 29.5371Z" fill="#263238"/>
<path id="Vector_14" d="M46.9678 30.1585C47.5592 32.3504 47.7087 34.6392 47.4779 36.895C47.1019 35.8122 46.9524 34.6854 46.8623 33.552C46.7876 32.4186 46.7744 31.2874 46.9678 30.1562V30.1585Z" fill="#263238"/>
<path id="Vector_15" d="M37.0902 32.1406C37.5167 33.1794 37.7388 34.2644 37.8949 35.3647C38.0334 36.4673 38.1125 37.5809 37.9344 38.6923C37.3035 36.5664 36.9737 34.359 37.0902 32.1406Z" fill="#263238"/>
</g>
<path id="Vector_16" d="M66.9143 32.1406C67.2419 35.554 67.2705 38.974 67.343 42.394C67.4793 45.7986 67.8443 49.2032 67.8311 52.6232C67.132 49.2406 66.6395 45.8756 66.4659 42.4138C66.4329 38.974 66.5428 35.5606 66.9165 32.1406H66.9143Z" fill="#263238"/>
<g id="Group_11" opacity="0.2">
<path id="Vector_17" d="M30.7609 15.8945C30.5586 16.612 30.4553 17.3404 30.4311 18.0645C30.4267 18.7247 30.4245 19.539 30.7543 20.098C30.9411 20.3533 31.2819 20.3577 31.5743 20.3775C31.9766 20.3753 32.4273 20.3005 32.7065 20.0144C33.0143 19.484 32.9747 18.8083 32.9835 18.2009C33.3331 19.6028 33.3023 20.7032 31.5787 20.7956C30.8202 20.8154 30.3036 20.5381 30.1519 19.7657C29.8793 18.4672 30.1299 17.0499 30.7587 15.8967L30.7609 15.8945Z" fill="#263238"/>
<path id="Vector_18" d="M40.7286 6.42578C40.5264 7.14323 40.4231 7.87169 40.3989 8.59574C40.3945 9.25597 40.3923 10.0703 40.7221 10.6292C40.9089 10.8845 41.2497 10.8889 41.5421 10.9087C41.9444 10.9065 42.3951 10.8317 42.6743 10.5456C42.9821 10.0152 42.9425 9.3396 42.9513 8.73218C43.3008 10.1341 43.2701 11.2345 41.5465 11.3269C40.788 11.3467 40.2714 11.0694 40.1197 10.2969C39.8471 8.99848 40.0977 7.58118 40.7264 6.42798L40.7286 6.42578Z" fill="#263238"/>
<path id="Vector_19" d="M53.262 2.12695C53.029 2.8356 52.8948 3.55745 52.8377 4.2815C52.8069 4.93953 52.7673 5.75382 53.0729 6.32602C53.2488 6.58791 53.5896 6.60771 53.8819 6.64073C54.2843 6.65613 54.7393 6.60111 55.0295 6.32822C55.3593 5.81104 55.3483 5.1354 55.3857 4.52799C55.6759 5.94308 55.5967 7.04127 53.871 7.05887C53.1125 7.04567 52.6091 6.74636 52.4903 5.96729C52.2749 4.65784 52.5849 3.25155 53.2642 2.12695H53.262Z" fill="#263238"/>
<path id="Vector_20" d="M64.4873 6.85352C64.2542 7.56216 64.1201 8.28401 64.063 9.00807C64.03 9.6661 63.9926 10.4804 64.2982 11.0526C64.4741 11.3145 64.8148 11.3343 65.1072 11.3673C65.5095 11.3827 65.9646 11.3277 66.2548 11.0548C66.5846 10.5376 66.5736 9.86196 66.611 9.25455C66.9012 10.6696 66.822 11.7678 65.0962 11.7854C64.3378 11.7722 63.8343 11.4729 63.7156 10.6939C63.5002 9.3844 63.8101 7.97811 64.4895 6.85352H64.4873Z" fill="#263238"/>
</g>
</g>
</g>
</g>
</g>
<g id="Character_Hand_2_2">
<g id="Group_12">
<g id="Group_13">
<g id="Group_14">
<path id="Vector_21" d="M68.9829 68.1729C76.7983 61.2471 74.6109 49.4114 76.4268 44.2792C77.9305 40.0295 82.1779 29.0037 80.6412 28.3765C73.4523 25.4406 67.1977 39.9547 67.1977 39.9547C67.1977 39.9547 57.5839 44.398 55.4514 51.8344C53.3189 59.2708 68.9829 68.1729 68.9829 68.1729Z" fill="#D3766A"/>
<path id="Vector_22" d="M68.9829 68.1729C76.7983 61.2471 74.6109 49.4114 76.4268 44.2792C77.9305 40.0295 82.1779 29.0037 80.6412 28.3765C73.4523 25.4406 67.1977 39.9547 67.1977 39.9547C67.1977 39.9547 57.5839 44.398 55.4514 51.8344C53.3189 59.2708 68.9829 68.1729 68.9829 68.1729Z" fill="#F2CEBC"/>
<path id="Vector_23" opacity="0.1" d="M74.0745 29.9766L66.0479 66.3156C61.6247 63.316 53.9147 57.1934 55.4514 51.8324C57.5817 44.396 67.1955 39.9526 67.1955 39.9526C67.1955 39.9526 70.0293 33.3789 74.0745 29.9766Z" fill="black"/>
</g>
<g id="Group_15">
<path id="Vector_24" d="M67.7078 4.79552C60.886 2.80823 59.5449 29.8667 59.0855 29.7434C59.0855 29.7434 59.2196 -0.0461624 55.6625 5.37198e-05C48.6407 0.0902852 48.4736 31.1761 48.4736 31.1761C48.4736 31.1761 46.6423 3.43765 43.3446 4.05607C35.927 5.44695 38.9543 33.3175 38.9543 33.3175C38.9543 33.3175 35.7402 13.2047 32.9152 13.8253C25.214 15.5155 30.3584 50.5935 30.5562 55.7609C31.0267 68.0214 39.5413 73.6421 39.5413 73.6421L47.249 92.8944H87.9445L69.1544 67.7925C71.2868 63.7189 68.9081 50.8158 68.2684 39.2749C67.9738 33.9447 70.1371 5.49977 67.7056 4.79112L67.7078 4.79552Z" fill="#F2CEBC"/>
<g id="Group_16">
<path id="Vector_25" d="M59.0745 28.5996C59.6373 30.8664 59.7582 33.2432 59.4131 35.554C58.8459 33.2828 58.7337 30.9148 59.0745 28.5996Z" fill="#464A59"/>
<path id="Vector_26" d="M48.4714 29.221C49.0627 31.4129 49.2122 33.7017 48.9814 35.9575C48.6055 34.8747 48.456 33.7479 48.3658 32.6145C48.2911 31.4811 48.2779 30.3499 48.4714 29.2188V29.221Z" fill="#464A59"/>
<path id="Vector_27" d="M38.5938 31.2031C39.0203 32.2419 39.2423 33.3269 39.3984 34.4272C39.5369 35.5298 39.616 36.6434 39.438 37.7548C38.807 35.6289 38.4772 33.4215 38.5938 31.2031Z" fill="#464A59"/>
</g>
<path id="Vector_28" d="M68.4179 31.2031C68.7454 34.6165 68.774 38.0365 68.8466 41.4565C68.9829 44.8611 69.3478 48.2657 69.3346 51.6857C68.6355 48.3031 68.1431 44.9381 67.9694 41.4763C67.9364 38.0365 68.0463 34.6231 68.4201 31.2031H68.4179Z" fill="#464A59"/>
<g id="Group_17" opacity="0.2">
<path id="Vector_29" d="M32.2644 14.9551C32.0622 15.6725 31.9588 16.401 31.9346 17.125C31.9302 17.7853 31.928 18.5995 32.2578 19.1585C32.4447 19.4138 32.7854 19.4182 33.0778 19.438C33.4802 19.4358 33.9308 19.361 34.21 19.0749C34.5178 18.5445 34.4782 17.8689 34.487 17.2615C34.8366 18.6634 34.8058 19.7638 33.0822 19.8562C32.3238 19.876 31.8071 19.5987 31.6554 18.8262C31.3828 17.5278 31.6335 16.1105 32.2622 14.9573L32.2644 14.9551Z" fill="black"/>
<path id="Vector_30" d="M42.2322 5.48633C42.0299 6.20378 41.9266 6.93223 41.9024 7.65628C41.898 8.31651 41.8958 9.1308 42.2256 9.68979C42.4125 9.94508 42.7532 9.94948 43.0456 9.96929C43.4479 9.96709 43.8986 9.89226 44.1778 9.60616C44.4856 9.07578 44.446 8.40014 44.4548 7.79273C44.8044 9.19462 44.7736 10.295 43.05 10.3874C42.2915 10.4072 41.7749 10.1299 41.6232 9.35748C41.3506 8.05902 41.6012 6.64173 42.23 5.48853L42.2322 5.48633Z" fill="black"/>
<path id="Vector_31" d="M54.7655 1.1875C54.5325 1.89615 54.3984 2.618 54.3412 3.34205C54.3104 4.00008 54.2709 4.81436 54.5765 5.38656C54.7523 5.64845 55.0931 5.66826 55.3855 5.70127C55.7878 5.71668 56.2429 5.66166 56.5331 5.38876C56.8628 4.87158 56.8519 4.19595 56.8892 3.58854C57.1794 5.00363 57.1003 6.10181 55.3745 6.11942C54.616 6.10621 54.1126 5.80691 53.9939 5.02784C53.7784 3.71838 54.0884 2.31209 54.7677 1.1875H54.7655Z" fill="black"/>
<path id="Vector_32" d="M65.9908 5.91406C65.7578 6.62271 65.6237 7.34456 65.5665 8.06861C65.5335 8.72664 65.4962 9.54093 65.8017 10.1131C65.9776 10.375 66.3184 10.3948 66.6108 10.4278C67.0131 10.4432 67.4682 10.3882 67.7584 10.1153C68.0881 9.59815 68.0771 8.92251 68.1145 8.3151C68.4047 9.73019 68.3256 10.8284 66.5998 10.846C65.8413 10.8328 65.3379 10.5335 65.2192 9.7544C65.0037 8.44495 65.3137 7.03865 65.993 5.91406H65.9908Z" fill="black"/>
</g>
</g>
</g>
<path id="Vector_33" d="M46.8072 91.7985C45.033 92.9121 43.0083 92.3003 42.6235 90.1105C42.1047 86.6509 44.7099 83.0438 46.8621 80.5702C50.4082 76.6352 54.7831 73.5717 59.3054 70.8692C61.3301 69.6896 67.0065 66.5997 69.1566 67.7925C68.7653 67.5967 68.308 67.6737 67.8925 67.7331C65.3643 68.2899 63.1197 69.716 60.9168 71.0233C57.6279 73.0876 54.3654 75.2597 51.3492 77.707C48.1197 80.4271 44.833 83.517 43.382 87.5752C43.0215 88.746 42.8038 90.0973 43.4436 91.1911C44.1185 92.3729 45.708 92.3531 46.8094 91.7963L46.8072 91.7985Z" fill="#53A753"/>
</g>
</g>
<g id="Table">
<path id="Vector_34" d="M0 92.8984C28.8304 92.7641 61.1696 92.7619 90 92.8984C61.1696 93.0348 28.8304 93.0326 0 92.8984Z" fill="#263238"/>
</g>
</g>
<defs>
<clipPath id="clip0_2850_5536">
<rect width="90" height="93" fill="white"/>
</clipPath>
</defs>
</svg>
