<svg width="20" height="21" viewBox="0 0 20 21" fill="none" xmlns="http://www.w3.org/2000/svg">
<g id="Lock">
<path id="Icon" d="M5.83333 9.66602V6.33268C5.83333 5.22761 6.27232 4.16781 7.05372 3.3864C7.83512 2.605 8.89493 2.16602 10 2.16602C11.1051 2.16602 12.1649 2.605 12.9463 3.3864C13.7277 4.16781 14.1667 5.22761 14.1667 6.33268V9.66602M4.16667 9.66602H15.8333C16.7538 9.66602 17.5 10.4122 17.5 11.3327V17.166C17.5 18.0865 16.7538 18.8327 15.8333 18.8327H4.16667C3.24619 18.8327 2.5 18.0865 2.5 17.166V11.3327C2.5 10.4122 3.24619 9.66602 4.16667 9.66602Z" stroke="#1E1E1E" stroke-width="2" stroke-linecap="round" stroke-linejoin="round"/>
</g>
</svg>
