<svg width="21" height="20" viewBox="0 0 21 20" fill="none" xmlns="http://www.w3.org/2000/svg">
<g id="Paperclip">
<path id="Icon" d="M18.2001 9.2081L10.5417 16.8664C9.60354 17.8046 8.33107 18.3317 7.00425 18.3317C5.67743 18.3317 4.40495 17.8046 3.46675 16.8664C2.52854 15.9282 2.00146 14.6558 2.00146 13.3289C2.00146 12.0021 2.52854 10.7296 3.46675 9.79144L11.1251 2.1331C11.7505 1.50763 12.5989 1.15625 13.4834 1.15625C14.368 1.15625 15.2163 1.50763 15.8417 2.1331C16.4672 2.75857 16.8186 3.60689 16.8186 4.49144C16.8186 5.37598 16.4672 6.2243 15.8417 6.84977L8.17508 14.5081C7.86234 14.8208 7.43819 14.9965 6.99591 14.9965C6.55364 14.9965 6.12948 14.8208 5.81675 14.5081C5.50401 14.1954 5.32832 13.7712 5.32832 13.3289C5.32832 12.8867 5.50401 12.4625 5.81675 12.1498L12.8917 5.0831" stroke="white" stroke-width="1.6" stroke-linecap="round" stroke-linejoin="round"/>
</g>
</svg>
