<svg width="20" height="21" viewBox="0 0 20 21" fill="none" xmlns="http://www.w3.org/2000/svg">
<g id="Phone">
<path id="Icon" d="M18.3333 14.5994V17.0994C18.3343 17.3315 18.2867 17.5612 18.1937 17.7739C18.1008 17.9865 17.9644 18.1774 17.7934 18.3343C17.6224 18.4912 17.4205 18.6107 17.2006 18.685C16.9808 18.7594 16.7478 18.787 16.5167 18.7661C13.9523 18.4875 11.4892 17.6112 9.32498 16.2078C7.31151 14.9283 5.60443 13.2212 4.32499 11.2078C2.91663 9.03377 2.04019 6.55859 1.76665 3.98276C1.74583 3.75232 1.77321 3.52006 1.84707 3.30078C1.92092 3.0815 2.03963 2.88 2.19562 2.70911C2.35162 2.53822 2.54149 2.40169 2.75314 2.3082C2.9648 2.21471 3.1936 2.16631 3.42499 2.1661H5.92498C6.32941 2.16212 6.72148 2.30533 7.02812 2.56904C7.33476 2.83275 7.53505 3.19897 7.59165 3.59943C7.69717 4.39949 7.89286 5.18504 8.17499 5.9411C8.2871 6.23937 8.31137 6.56353 8.24491 6.87516C8.17844 7.1868 8.02404 7.47286 7.79998 7.69943L6.74165 8.75776C7.92795 10.8441 9.65536 12.5715 11.7417 13.7578L12.8 12.6994C13.0266 12.4754 13.3126 12.321 13.6243 12.2545C13.9359 12.188 14.26 12.2123 14.5583 12.3244C15.3144 12.6066 16.0999 12.8022 16.9 12.9078C17.3048 12.9649 17.6745 13.1688 17.9388 13.4807C18.203 13.7926 18.3435 14.1907 18.3333 14.5994Z" stroke="#2F323C" stroke-width="2" stroke-linecap="round" stroke-linejoin="round"/>
</g>
</svg>
