<svg width="20" height="21" viewBox="0 0 20 21" fill="none" xmlns="http://www.w3.org/2000/svg">
<g id="Trash 2">
<path id="Icon" d="M2.5 5.49935H4.16667M4.16667 5.49935H17.5M4.16667 5.49935L4.16667 17.166C4.16667 17.608 4.34226 18.032 4.65482 18.3445C4.96738 18.6571 5.39131 18.8327 5.83333 18.8327H14.1667C14.6087 18.8327 15.0326 18.6571 15.3452 18.3445C15.6577 18.032 15.8333 17.608 15.8333 17.166V5.49935M6.66667 5.49935V3.83268C6.66667 3.39065 6.84226 2.96673 7.15482 2.65417C7.46738 2.34161 7.89131 2.16602 8.33333 2.16602H11.6667C12.1087 2.16602 12.5326 2.34161 12.8452 2.65417C13.1577 2.96673 13.3333 3.39065 13.3333 3.83268V5.49935M8.33333 9.66602V14.666M11.6667 9.66602V14.666" stroke="#2F323C" stroke-width="1.6" stroke-linecap="round" stroke-linejoin="round"/>
</g>
</svg>
