<svg xmlns="http://www.w3.org/2000/svg" width="105" height="55" viewBox="0 0 105 55" fill="none">
  <g>
    <path d="M0 9.73435C0.546314 9.09674 4.62404 10.6329 5.1883 10.8394C9.34567 12.3585 12.9186 15.1869 15.612 18.7074C19.692 24.0431 20.816 30.3182 23.0462 36.4765C25.1103 42.1775 28.4263 47.8604 33.3981 51.4342C45.8264 60.3687 64.7769 48.3131 68.0862 34.8393C68.4542 33.3395 68.7481 31.7103 68.6538 30.1548C69.079 37.1606 64.0522 42.5088 57.3585 43.4936C49.0965 44.7098 42.6293 39.3775 38.896 32.3456C37.9907 30.6404 37.2279 28.8558 36.5963 27.0281C34.2237 20.1551 32.3324 13.1425 28.0415 7.14534C23.9537 1.43522 17.9364 -1.74942 11.0811 1.00637C6.69038 2.77284 3.05128 6.17418 0 9.73435Z" fill="#7073FA"/>
    <path d="M35.3253 9.8368C36.2205 8.79189 42.1638 11.6055 42.9603 12.0151C49.0875 15.1714 53.3066 21.1107 55.6253 27.5378C58.9436 36.7321 62.8856 53.1987 74.4603 54.854C84.4801 56.2869 90.7622 46.7591 96.9231 40.5294C92.7231 44.7771 85.9284 44.5547 81.1798 41.3826C76.2473 38.0879 73.3082 31.697 71.6715 26.1741C68.7582 16.3536 62.9159 -2.07355 49.5811 0.190979C43.8083 1.17122 39.0228 5.52216 35.3253 9.8368Z" fill="#7073FA"/>
    <path d="M95.9258 18.3519C100.936 18.3519 104.998 14.2441 104.998 9.17694C104.998 4.10973 100.936 0.00195312 95.9258 0.00195312C90.9155 0.00195312 86.8539 4.10973 86.8539 9.17694C86.8539 14.2441 90.9155 18.3519 95.9258 18.3519Z" fill="#7073FA"/>
    <path d="M104.567 11.9707C104.567 11.9707 101.862 23.9764 89.4004 23.1618C89.4004 23.1618 94.1691 21.4883 95.3997 17.598L104.568 11.9707H104.567Z" fill="#7073FA"/>
  </g>
</svg>