<svg width="190" height="12" viewBox="0 0 190 12" fill="none" xmlns="http://www.w3.org/2000/svg">
<path d="M2.842 11L0.084 3.58H1.358L3.808 10.3H3.206L5.754 3.58H6.888L9.38 10.3H8.792L11.298 3.58H12.502L9.73 11H8.442L6.104 4.868H6.496L4.13 11H2.842ZM25.2387 11.084C24.4921 11.084 23.8294 10.9207 23.2507 10.594C22.6721 10.2673 22.2147 9.81933 21.8787 9.25C21.5427 8.67133 21.3747 8.018 21.3747 7.29C21.3747 6.55267 21.5427 5.89933 21.8787 5.33C22.2147 4.76067 22.6721 4.31733 23.2507 4C23.8294 3.67333 24.4921 3.51 25.2387 3.51C25.9761 3.51 26.6341 3.67333 27.2127 4C27.8007 4.31733 28.2581 4.76067 28.5847 5.33C28.9207 5.89 29.0887 6.54333 29.0887 7.29C29.0887 8.02733 28.9207 8.68067 28.5847 9.25C28.2581 9.81933 27.8007 10.2673 27.2127 10.594C26.6341 10.9207 25.9761 11.084 25.2387 11.084ZM25.2387 9.908C25.7147 9.908 26.1394 9.80067 26.5127 9.586C26.8954 9.37133 27.1941 9.068 27.4087 8.676C27.6234 8.27467 27.7307 7.81267 27.7307 7.29C27.7307 6.758 27.6234 6.30067 27.4087 5.918C27.1941 5.526 26.8954 5.22267 26.5127 5.008C26.1394 4.79333 25.7147 4.686 25.2387 4.686C24.7627 4.686 24.3381 4.79333 23.9647 5.008C23.5914 5.22267 23.2927 5.526 23.0687 5.918C22.8447 6.30067 22.7327 6.758 22.7327 7.29C22.7327 7.81267 22.8447 8.27467 23.0687 8.676C23.2927 9.068 23.5914 9.37133 23.9647 9.586C24.3381 9.80067 24.7627 9.908 25.2387 9.908ZM39.3474 11V3.58H40.6354V5.596L40.5094 5.092C40.7148 4.57867 41.0601 4.18667 41.5454 3.916C42.0308 3.64533 42.6281 3.51 43.3374 3.51V4.812C43.2814 4.80267 43.2254 4.798 43.1694 4.798C43.1228 4.798 43.0761 4.798 43.0294 4.798C42.3108 4.798 41.7414 5.01267 41.3214 5.442C40.9014 5.87133 40.6914 6.492 40.6914 7.304V11H39.3474ZM54.4859 9.208L54.5139 7.486L58.7839 3.58H60.4079L57.1319 6.8L56.4039 7.416L54.4859 9.208ZM53.3939 11V0.611999H54.7379V11H53.3939ZM59.0639 11L56.1519 7.388L57.0199 6.31L60.7159 11H59.0639ZM85.8146 11.084C85.0586 11.084 84.382 10.9207 83.7846 10.594C83.1966 10.2673 82.7346 9.81933 82.3986 9.25C82.0626 8.68067 81.8946 8.02733 81.8946 7.29C81.8946 6.55267 82.0626 5.89933 82.3986 5.33C82.7346 4.76067 83.1966 4.31733 83.7846 4C84.382 3.67333 85.0586 3.51 85.8146 3.51C86.4866 3.51 87.084 3.64533 87.6066 3.916C88.1386 4.17733 88.5493 4.56933 88.8386 5.092L87.8166 5.75C87.574 5.386 87.2753 5.12 86.9206 4.952C86.5753 4.77467 86.202 4.686 85.8006 4.686C85.3153 4.686 84.8813 4.79333 84.4986 5.008C84.116 5.22267 83.8126 5.526 83.5886 5.918C83.3646 6.30067 83.2526 6.758 83.2526 7.29C83.2526 7.822 83.3646 8.284 83.5886 8.676C83.8126 9.068 84.116 9.37133 84.4986 9.586C84.8813 9.80067 85.3153 9.908 85.8006 9.908C86.202 9.908 86.5753 9.824 86.9206 9.656C87.2753 9.47867 87.574 9.208 87.8166 8.844L88.8386 9.488C88.5493 10.0013 88.1386 10.398 87.6066 10.678C87.084 10.9487 86.4866 11.084 85.8146 11.084ZM102.047 11.084C101.301 11.084 100.638 10.9207 100.059 10.594C99.4806 10.2673 99.0233 9.81933 98.6873 9.25C98.3513 8.67133 98.1833 8.018 98.1833 7.29C98.1833 6.55267 98.3513 5.89933 98.6873 5.33C99.0233 4.76067 99.4806 4.31733 100.059 4C100.638 3.67333 101.301 3.51 102.047 3.51C102.785 3.51 103.443 3.67333 104.021 4C104.609 4.31733 105.067 4.76067 105.393 5.33C105.729 5.89 105.897 6.54333 105.897 7.29C105.897 8.02733 105.729 8.68067 105.393 9.25C105.067 9.81933 104.609 10.2673 104.021 10.594C103.443 10.9207 102.785 11.084 102.047 11.084ZM102.047 9.908C102.523 9.908 102.948 9.80067 103.321 9.586C103.704 9.37133 104.003 9.068 104.217 8.676C104.432 8.27467 104.539 7.81267 104.539 7.29C104.539 6.758 104.432 6.30067 104.217 5.918C104.003 5.526 103.704 5.22267 103.321 5.008C102.948 4.79333 102.523 4.686 102.047 4.686C101.571 4.686 101.147 4.79333 100.773 5.008C100.4 5.22267 100.101 5.526 99.8773 5.918C99.6533 6.30067 99.5413 6.758 99.5413 7.29C99.5413 7.81267 99.6533 8.27467 99.8773 8.676C100.101 9.068 100.4 9.37133 100.773 9.586C101.147 9.80067 101.571 9.908 102.047 9.908ZM120.118 3.51C120.725 3.51 121.257 3.62667 121.714 3.86C122.181 4.09333 122.545 4.448 122.806 4.924C123.067 5.4 123.198 6.002 123.198 6.73V11H121.854V6.884C121.854 6.16533 121.677 5.624 121.322 5.26C120.977 4.896 120.487 4.714 119.852 4.714C119.376 4.714 118.961 4.80733 118.606 4.994C118.251 5.18067 117.976 5.456 117.78 5.82C117.593 6.184 117.5 6.63667 117.5 7.178V11H116.156V3.58H117.444V5.582L117.234 5.05C117.477 4.56467 117.85 4.18667 118.354 3.916C118.858 3.64533 119.446 3.51 120.118 3.51ZM138.047 3.51C138.654 3.51 139.186 3.62667 139.643 3.86C140.11 4.09333 140.474 4.448 140.735 4.924C140.997 5.4 141.127 6.002 141.127 6.73V11H139.783V6.884C139.783 6.16533 139.606 5.624 139.251 5.26C138.906 4.896 138.416 4.714 137.781 4.714C137.305 4.714 136.89 4.80733 136.535 4.994C136.181 5.18067 135.905 5.456 135.709 5.82C135.523 6.184 135.429 6.63667 135.429 7.178V11H134.085V3.58H135.373V5.582L135.163 5.05C135.406 4.56467 135.779 4.18667 136.283 3.916C136.787 3.64533 137.375 3.51 138.047 3.51ZM155.319 11.084C154.525 11.084 153.825 10.9207 153.219 10.594C152.621 10.2673 152.155 9.81933 151.819 9.25C151.492 8.68067 151.329 8.02733 151.329 7.29C151.329 6.55267 151.487 5.89933 151.805 5.33C152.131 4.76067 152.575 4.31733 153.135 4C153.704 3.67333 154.343 3.51 155.053 3.51C155.771 3.51 156.406 3.66867 156.957 3.986C157.507 4.30333 157.937 4.75133 158.245 5.33C158.562 5.89933 158.721 6.56667 158.721 7.332C158.721 7.388 158.716 7.45333 158.707 7.528C158.707 7.60267 158.702 7.67267 158.693 7.738H152.379V6.772H157.993L157.447 7.108C157.456 6.632 157.358 6.20733 157.153 5.834C156.947 5.46067 156.663 5.17133 156.299 4.966C155.944 4.75133 155.529 4.644 155.053 4.644C154.586 4.644 154.171 4.75133 153.807 4.966C153.443 5.17133 153.158 5.46533 152.953 5.848C152.747 6.22133 152.645 6.65067 152.645 7.136V7.36C152.645 7.85467 152.757 8.298 152.981 8.69C153.214 9.07267 153.536 9.37133 153.947 9.586C154.357 9.80067 154.829 9.908 155.361 9.908C155.799 9.908 156.196 9.83333 156.551 9.684C156.915 9.53467 157.232 9.31067 157.503 9.012L158.245 9.88C157.909 10.272 157.489 10.5707 156.985 10.776C156.49 10.9813 155.935 11.084 155.319 11.084ZM172.221 11.084C171.465 11.084 170.788 10.9207 170.191 10.594C169.603 10.2673 169.141 9.81933 168.805 9.25C168.469 8.68067 168.301 8.02733 168.301 7.29C168.301 6.55267 168.469 5.89933 168.805 5.33C169.141 4.76067 169.603 4.31733 170.191 4C170.788 3.67333 171.465 3.51 172.221 3.51C172.893 3.51 173.49 3.64533 174.013 3.916C174.545 4.17733 174.956 4.56933 175.245 5.092L174.223 5.75C173.98 5.386 173.682 5.12 173.327 4.952C172.982 4.77467 172.608 4.686 172.207 4.686C171.722 4.686 171.288 4.79333 170.905 5.008C170.522 5.22267 170.219 5.526 169.995 5.918C169.771 6.30067 169.659 6.758 169.659 7.29C169.659 7.822 169.771 8.284 169.995 8.676C170.219 9.068 170.522 9.37133 170.905 9.586C171.288 9.80067 171.722 9.908 172.207 9.908C172.608 9.908 172.982 9.824 173.327 9.656C173.682 9.47867 173.98 9.208 174.223 8.844L175.245 9.488C174.956 10.0013 174.545 10.398 174.013 10.678C173.49 10.9487 172.893 11.084 172.221 11.084ZM188.029 11.084C187.282 11.084 186.703 10.8833 186.293 10.482C185.882 10.0807 185.677 9.50667 185.677 8.76V1.956H187.021V8.704C187.021 9.10533 187.119 9.41333 187.315 9.628C187.52 9.84267 187.809 9.95 188.183 9.95C188.603 9.95 188.953 9.83333 189.233 9.6L189.653 10.566C189.447 10.7433 189.2 10.874 188.911 10.958C188.631 11.042 188.337 11.084 188.029 11.084ZM184.417 4.686V3.58H189.149V4.686H184.417Z" fill="#A1A3FC"/>
</svg>
