<svg width="183" height="19" viewBox="0 0 183 19" fill="none" xmlns="http://www.w3.org/2000/svg">
<path d="M6.216 18L0.648 1.2H3.888L8.856 16.392H7.248L12.408 1.2H15.288L20.304 16.392H18.744L23.832 1.2H26.808L21.24 18H17.928L13.344 4.296H14.208L9.552 18H6.216ZM34.3408 18.168C33.0288 18.168 31.8608 17.888 30.8368 17.328C29.8128 16.752 29.0048 15.968 28.4128 14.976C27.8208 13.984 27.5248 12.856 27.5248 11.592C27.5248 10.312 27.8208 9.184 28.4128 8.208C29.0048 7.216 29.8128 6.44 30.8368 5.88C31.8608 5.32 33.0288 5.04 34.3408 5.04C35.6688 5.04 36.8448 5.32 37.8688 5.88C38.9088 6.44 39.7168 7.208 40.2928 8.184C40.8848 9.16 41.1808 10.296 41.1808 11.592C41.1808 12.856 40.8848 13.984 40.2928 14.976C39.7168 15.968 38.9088 16.752 37.8688 17.328C36.8448 17.888 35.6688 18.168 34.3408 18.168ZM34.3408 15.6C35.0768 15.6 35.7328 15.44 36.3088 15.12C36.8848 14.8 37.3328 14.336 37.6528 13.728C37.9888 13.12 38.1568 12.408 38.1568 11.592C38.1568 10.76 37.9888 10.048 37.6528 9.456C37.3328 8.848 36.8848 8.384 36.3088 8.064C35.7328 7.744 35.0848 7.584 34.3648 7.584C33.6288 7.584 32.9728 7.744 32.3968 8.064C31.8368 8.384 31.3888 8.848 31.0528 9.456C30.7168 10.048 30.5488 10.76 30.5488 11.592C30.5488 12.408 30.7168 13.12 31.0528 13.728C31.3888 14.336 31.8368 14.8 32.3968 15.12C32.9728 15.44 33.6208 15.6 34.3408 15.6ZM44.5296 18V5.184H47.3856V8.712L47.0496 7.68C47.4336 6.816 48.0336 6.16 48.8496 5.712C49.6816 5.264 50.7136 5.04 51.9456 5.04V7.896C51.8176 7.864 51.6976 7.848 51.5856 7.848C51.4736 7.832 51.3616 7.824 51.2496 7.824C50.1136 7.824 49.2096 8.16 48.5376 8.832C47.8656 9.488 47.5296 10.472 47.5296 11.784V18H44.5296ZM57.4185 15.144L57.4905 11.376L64.1865 5.184H67.7865L62.0985 10.896L60.5145 12.216L57.4185 15.144ZM54.9705 18V0.191999H57.9705V18H54.9705ZM64.6425 18L59.9625 12.216L61.8585 9.816L68.2905 18H64.6425ZM85.8851 18.24C84.6051 18.24 83.4131 18.032 82.3091 17.616C81.2211 17.184 80.2691 16.584 79.4531 15.816C78.6531 15.032 78.0291 14.112 77.5811 13.056C77.1331 12 76.9091 10.848 76.9091 9.6C76.9091 8.352 77.1331 7.2 77.5811 6.144C78.0291 5.088 78.6611 4.176 79.4771 3.408C80.2931 2.624 81.2451 2.024 82.3331 1.608C83.4211 1.176 84.6131 0.959999 85.9091 0.959999C87.2851 0.959999 88.5411 1.2 89.6771 1.68C90.8131 2.144 91.7731 2.84 92.5571 3.768L90.5411 5.664C89.9331 5.008 89.2531 4.52 88.5011 4.2C87.7491 3.864 86.9331 3.696 86.0531 3.696C85.1731 3.696 84.3651 3.84 83.6291 4.128C82.9091 4.416 82.2771 4.824 81.7331 5.352C81.2051 5.88 80.7891 6.504 80.4851 7.224C80.1971 7.944 80.0531 8.736 80.0531 9.6C80.0531 10.464 80.1971 11.256 80.4851 11.976C80.7891 12.696 81.2051 13.32 81.7331 13.848C82.2771 14.376 82.9091 14.784 83.6291 15.072C84.3651 15.36 85.1731 15.504 86.0531 15.504C86.9331 15.504 87.7491 15.344 88.5011 15.024C89.2531 14.688 89.9331 14.184 90.5411 13.512L92.5571 15.432C91.7731 16.344 90.8131 17.04 89.6771 17.52C88.5411 18 87.2771 18.24 85.8851 18.24ZM101.03 18.168C99.7179 18.168 98.5499 17.888 97.5259 17.328C96.5019 16.752 95.6939 15.968 95.1019 14.976C94.5099 13.984 94.2139 12.856 94.2139 11.592C94.2139 10.312 94.5099 9.184 95.1019 8.208C95.6939 7.216 96.5019 6.44 97.5259 5.88C98.5499 5.32 99.7179 5.04 101.03 5.04C102.358 5.04 103.534 5.32 104.558 5.88C105.598 6.44 106.406 7.208 106.982 8.184C107.574 9.16 107.87 10.296 107.87 11.592C107.87 12.856 107.574 13.984 106.982 14.976C106.406 15.968 105.598 16.752 104.558 17.328C103.534 17.888 102.358 18.168 101.03 18.168ZM101.03 15.6C101.766 15.6 102.422 15.44 102.998 15.12C103.574 14.8 104.022 14.336 104.342 13.728C104.678 13.12 104.846 12.408 104.846 11.592C104.846 10.76 104.678 10.048 104.342 9.456C104.022 8.848 103.574 8.384 102.998 8.064C102.422 7.744 101.774 7.584 101.054 7.584C100.318 7.584 99.6619 7.744 99.0859 8.064C98.5259 8.384 98.0779 8.848 97.7419 9.456C97.4059 10.048 97.2379 10.76 97.2379 11.592C97.2379 12.408 97.4059 13.12 97.7419 13.728C98.0779 14.336 98.5259 14.8 99.0859 15.12C99.6619 15.44 100.31 15.6 101.03 15.6ZM118.491 5.04C119.515 5.04 120.427 5.24 121.227 5.64C122.043 6.04 122.683 6.656 123.147 7.488C123.611 8.304 123.843 9.36 123.843 10.656V18H120.843V11.04C120.843 9.904 120.571 9.056 120.027 8.496C119.499 7.936 118.755 7.656 117.795 7.656C117.091 7.656 116.467 7.8 115.923 8.088C115.379 8.376 114.955 8.808 114.651 9.384C114.363 9.944 114.219 10.656 114.219 11.52V18H111.219V5.184H114.075V8.64L113.571 7.584C114.019 6.768 114.667 6.144 115.515 5.712C116.379 5.264 117.371 5.04 118.491 5.04ZM135.4 5.04C136.424 5.04 137.336 5.24 138.136 5.64C138.952 6.04 139.592 6.656 140.056 7.488C140.52 8.304 140.752 9.36 140.752 10.656V18H137.752V11.04C137.752 9.904 137.48 9.056 136.936 8.496C136.408 7.936 135.664 7.656 134.704 7.656C134 7.656 133.376 7.8 132.832 8.088C132.288 8.376 131.864 8.808 131.56 9.384C131.272 9.944 131.128 10.656 131.128 11.52V18H128.128V5.184H130.984V8.64L130.48 7.584C130.928 6.768 131.576 6.144 132.424 5.712C133.288 5.264 134.28 5.04 135.4 5.04ZM151.085 18.168C149.661 18.168 148.413 17.888 147.341 17.328C146.285 16.752 145.461 15.968 144.869 14.976C144.293 13.984 144.005 12.856 144.005 11.592C144.005 10.312 144.285 9.184 144.845 8.208C145.421 7.216 146.205 6.44 147.197 5.88C148.205 5.32 149.349 5.04 150.629 5.04C151.877 5.04 152.989 5.312 153.965 5.856C154.941 6.4 155.709 7.168 156.269 8.16C156.829 9.152 157.109 10.32 157.109 11.664C157.109 11.792 157.101 11.936 157.085 12.096C157.085 12.256 157.077 12.408 157.061 12.552H146.381V10.56H155.477L154.301 11.184C154.317 10.448 154.165 9.8 153.845 9.24C153.525 8.68 153.085 8.24 152.525 7.92C151.981 7.6 151.349 7.44 150.629 7.44C149.893 7.44 149.245 7.6 148.685 7.92C148.141 8.24 147.709 8.688 147.389 9.264C147.085 9.824 146.933 10.488 146.933 11.256V11.736C146.933 12.504 147.109 13.184 147.461 13.776C147.813 14.368 148.309 14.824 148.949 15.144C149.589 15.464 150.325 15.624 151.157 15.624C151.877 15.624 152.525 15.512 153.101 15.288C153.677 15.064 154.189 14.712 154.637 14.232L156.245 16.08C155.669 16.752 154.941 17.272 154.061 17.64C153.197 17.992 152.205 18.168 151.085 18.168ZM166.351 18.168C165.007 18.168 163.807 17.888 162.751 17.328C161.711 16.752 160.895 15.968 160.303 14.976C159.711 13.984 159.415 12.856 159.415 11.592C159.415 10.312 159.711 9.184 160.303 8.208C160.895 7.216 161.711 6.44 162.751 5.88C163.807 5.32 165.007 5.04 166.351 5.04C167.599 5.04 168.695 5.296 169.639 5.808C170.599 6.304 171.327 7.04 171.823 8.016L169.519 9.36C169.135 8.752 168.663 8.304 168.103 8.016C167.559 7.728 166.967 7.584 166.327 7.584C165.591 7.584 164.927 7.744 164.335 8.064C163.743 8.384 163.279 8.848 162.943 9.456C162.607 10.048 162.439 10.76 162.439 11.592C162.439 12.424 162.607 13.144 162.943 13.752C163.279 14.344 163.743 14.8 164.335 15.12C164.927 15.44 165.591 15.6 166.327 15.6C166.967 15.6 167.559 15.456 168.103 15.168C168.663 14.88 169.135 14.432 169.519 13.824L171.823 15.168C171.327 16.128 170.599 16.872 169.639 17.4C168.695 17.912 167.599 18.168 166.351 18.168ZM179.884 18.168C178.476 18.168 177.388 17.808 176.62 17.088C175.852 16.352 175.468 15.272 175.468 13.848V2.352H178.468V13.776C178.468 14.384 178.62 14.856 178.924 15.192C179.244 15.528 179.684 15.696 180.244 15.696C180.916 15.696 181.476 15.52 181.924 15.168L182.764 17.304C182.412 17.592 181.98 17.808 181.468 17.952C180.956 18.096 180.428 18.168 179.884 18.168ZM173.356 7.68V5.28H181.9V7.68H173.356Z" fill="#2F323C"/>
</svg>
